<svg width="218" height="296" viewBox="0 0 218 296" fill="none" xmlns="http://www.w3.org/2000/svg">
<g clip-path="url(#clip0_363_181)">
<path fill-rule="evenodd" clip-rule="evenodd" d="M112.479 295.479C170.469 295.479 217.479 248.469 217.479 190.479C217.479 132.489 170.469 85.4785 112.479 85.4785C54.4886 85.4785 7.47852 132.489 7.47852 190.479C7.47852 248.469 54.4886 295.479 112.479 295.479ZM112.479 249.323C144.979 249.323 171.325 222.977 171.325 190.477C171.325 157.977 144.979 131.631 112.479 131.631C79.9787 131.631 53.6324 157.977 53.6324 190.477C53.6324 222.977 79.9787 249.323 112.479 249.323Z" fill="black"/>
<path d="M32.4799 212.479L48.9344 180.229H16.0254L32.4799 212.479Z" fill="url(#paint0_radial_363_181)"/>
<path d="M8.1271 190.417L8.12638 190.416C5.36876 185.988 4.00258 181.322 4 176.683L4.02068 21.3407C4.02068 17.3252 6.3366 13.0082 11.366 9.54483C16.4056 6.0744 23.4644 4 31.0103 4C38.5563 4 45.615 6.0744 50.6547 9.54483C55.684 13.0081 57.9999 17.3244 58 21.3399L57.9897 176.675C57.9915 181.317 56.6284 185.987 53.8724 190.418L34.3184 221.837L34.3178 221.838C34.2591 221.932 34.0085 222.236 33.3675 222.527C32.7392 222.812 31.9116 223 31 223C30.0885 223 29.2608 222.812 28.6324 222.527C27.9914 222.236 27.7409 221.932 27.6822 221.838L27.6816 221.837L8.1271 190.417Z" fill="black" stroke="white" stroke-width="8"/>
</g>
<defs>
<radialGradient id="paint0_radial_363_181" cx="0" cy="0" r="1" gradientUnits="userSpaceOnUse" gradientTransform="translate(23.4395 208.477) rotate(-76.9484) scale(40.0322 34.8246)">
<stop stop-color="#B42FD7"/>
<stop offset="0.444295" stop-color="#4D24F4"/>
<stop offset="1" stop-color="#34D7BA"/>
</radialGradient>
<clipPath id="clip0_363_181">
<rect width="218" height="296" fill="white"/>
</clipPath>
</defs>
</svg>
