<svg width="53" height="34" viewBox="0 0 53 34" fill="none" xmlns="http://www.w3.org/2000/svg">
<path d="M27.2908 28.1379H11.6386L11.6371 33.9595L27.2908 33.7654V28.1379Z" fill="white"/>
<path d="M27 13.9234H0L0.00149918 19.745H27V13.9234Z" fill="white"/>
<path d="M26.9997 0H11.6371V5.8216H26.9997V0Z" fill="white"/>
<path fill-rule="evenodd" clip-rule="evenodd" d="M32.051 5.8216H37.9743H38.1762C40.7635 5.8216 42.6556 6.5008 43.8522 7.8592C45.0489 9.1852 45.6472 11.0934 45.6472 13.5838V20.3757C45.6472 22.8337 45.0489 24.7419 43.8522 26.1003C42.6556 27.4587 40.7635 28.1379 38.1762 28.1379H37.9743H32.051V33.7971L38.0791 33.9595C42.6394 33.9595 46.1 32.8113 48.461 30.515C50.8544 28.1864 52.051 24.7419 52.051 20.1816V13.7779C52.051 9.2176 50.8544 5.7893 48.461 3.493C46.1 1.1643 42.6394 0 38.0791 0H32.051V5.8216Z" fill="white"/>
</svg>
