<svg width="18" height="18" viewBox="0 0 18 18" fill="none" xmlns="http://www.w3.org/2000/svg">
<path d="M9 18C13.9705 18 18 13.9705 18 9C18 4.02945 13.9705 0 9 0C4.02945 0 0 4.02945 0 9C0 13.9705 4.02945 18 9 18Z" fill="url(#paint0_linear_508_581)"/>
<path d="M3.35064 9.44038C4.40273 8.86086 5.57716 8.37718 6.67448 7.89103C8.56231 7.09476 10.4576 6.31228 12.3721 5.58381C12.7446 5.45968 13.4138 5.3383 13.4795 5.8903C13.4435 6.67165 13.2957 7.44842 13.1943 8.2252C12.9369 9.9334 12.6395 11.6357 12.3494 13.3383C12.2495 13.9054 11.5391 14.199 11.0845 13.8361C9.99203 13.0982 8.89118 12.3674 7.81268 11.6124C7.45939 11.2534 7.78699 10.7379 8.10252 10.4816C9.00229 9.59485 9.95652 8.84147 10.8093 7.90892C11.0393 7.35343 10.3596 7.82158 10.1355 7.96502C8.90367 8.81387 7.70202 9.71455 6.40332 10.4606C5.73994 10.8257 4.96677 10.5137 4.30369 10.3099C3.70916 10.0637 2.83795 9.81576 3.35058 9.44042L3.35064 9.44038Z" fill="white"/>
<defs>
<linearGradient id="paint0_linear_508_581" x1="6.75105" y1="0.7506" x2="2.25105" y2="11.25" gradientUnits="userSpaceOnUse">
<stop stop-color="#37AEE2"/>
<stop offset="1" stop-color="#1E96C8"/>
</linearGradient>
</defs>
</svg>
